<svg width="204" height="60" viewBox="0 0 204 60" fill="none" xmlns="http://www.w3.org/2000/svg">
<path d="M200.092 47.8728C199.588 47.8728 199.135 47.7888 198.735 47.6208C198.334 47.4448 198.018 47.2048 197.786 46.9008C197.554 46.5888 197.426 46.2328 197.402 45.8328H198.531C198.563 46.1608 198.715 46.4288 198.987 46.6368C199.267 46.8448 199.632 46.9488 200.08 46.9488C200.497 46.9488 200.825 46.8568 201.065 46.6728C201.306 46.4888 201.426 46.2568 201.426 45.9768C201.426 45.6888 201.298 45.4768 201.041 45.3408C200.785 45.1968 200.389 45.0568 199.852 44.9208C199.364 44.7928 198.963 44.6648 198.651 44.5368C198.347 44.4008 198.082 44.2048 197.858 43.9488C197.642 43.6848 197.534 43.3408 197.534 42.9168C197.534 42.5808 197.634 42.2728 197.834 41.9928C198.034 41.7128 198.318 41.4928 198.687 41.3328C199.055 41.1648 199.476 41.0808 199.948 41.0808C200.677 41.0808 201.265 41.2648 201.714 41.6328C202.162 42.0008 202.403 42.5048 202.435 43.1448H201.342C201.318 42.8008 201.177 42.5248 200.921 42.3168C200.673 42.1088 200.337 42.0048 199.912 42.0048C199.52 42.0048 199.207 42.0888 198.975 42.2568C198.743 42.4248 198.627 42.6448 198.627 42.9168C198.627 43.1328 198.695 43.3128 198.831 43.4568C198.975 43.5928 199.151 43.7048 199.36 43.7928C199.576 43.8728 199.872 43.9648 200.248 44.0688C200.721 44.1968 201.105 44.3248 201.402 44.4528C201.698 44.5728 201.95 44.7568 202.158 45.0048C202.375 45.2528 202.487 45.5768 202.495 45.9768C202.495 46.3368 202.395 46.6608 202.194 46.9488C201.994 47.2368 201.71 47.4648 201.342 47.6328C200.981 47.7928 200.565 47.8728 200.092 47.8728Z" fill="black" fill-opacity="0.5"/>
<path d="M196.199 44.2248C196.199 44.4328 196.187 44.6528 196.163 44.8848H190.901C190.941 45.5328 191.162 46.0408 191.562 46.4088C191.971 46.7688 192.463 46.9488 193.04 46.9488C193.512 46.9488 193.905 46.8408 194.217 46.6248C194.537 46.4008 194.761 46.1048 194.89 45.7368H196.067C195.891 46.3688 195.538 46.8848 195.01 47.2848C194.481 47.6768 193.824 47.8728 193.04 47.8728C192.415 47.8728 191.854 47.7328 191.358 47.4528C190.869 47.1728 190.485 46.7768 190.205 46.2648C189.924 45.7448 189.784 45.1448 189.784 44.4648C189.784 43.7848 189.92 43.1888 190.193 42.6768C190.465 42.1648 190.845 41.7728 191.334 41.5008C191.83 41.2208 192.399 41.0808 193.04 41.0808C193.664 41.0808 194.217 41.2168 194.697 41.4888C195.178 41.7608 195.546 42.1368 195.802 42.6168C196.067 43.0888 196.199 43.6248 196.199 44.2248ZM195.07 43.9968C195.07 43.5808 194.978 43.2248 194.793 42.9288C194.609 42.6248 194.357 42.3968 194.037 42.2448C193.724 42.0848 193.376 42.0048 192.992 42.0048C192.439 42.0048 191.967 42.1808 191.574 42.5328C191.19 42.8848 190.97 43.3728 190.913 43.9968H195.07Z" fill="black" fill-opacity="0.5"/>
<path d="M182.368 44.4648C182.368 43.7848 182.504 43.1928 182.776 42.6888C183.048 42.1768 183.425 41.7808 183.905 41.5008C184.394 41.2208 184.95 41.0808 185.575 41.0808C186.384 41.0808 187.048 41.2768 187.569 41.6688C188.098 42.0608 188.446 42.6048 188.614 43.3008H187.437C187.325 42.9008 187.105 42.5848 186.776 42.3528C186.456 42.1208 186.055 42.0048 185.575 42.0048C184.95 42.0048 184.446 42.2208 184.061 42.6528C183.677 43.0768 183.485 43.6808 183.485 44.4648C183.485 45.2568 183.677 45.8688 184.061 46.3008C184.446 46.7328 184.95 46.9488 185.575 46.9488C186.055 46.9488 186.456 46.8368 186.776 46.6128C187.097 46.3888 187.317 46.0688 187.437 45.6528H188.614C188.438 46.3248 188.086 46.8648 187.557 47.2728C187.028 47.6728 186.368 47.8728 185.575 47.8728C184.95 47.8728 184.394 47.7328 183.905 47.4528C183.425 47.1728 183.048 46.7768 182.776 46.2648C182.504 45.7528 182.368 45.1528 182.368 44.4648Z" fill="black" fill-opacity="0.5"/>
<path d="M180.264 40.1208C180.056 40.1208 179.88 40.0488 179.736 39.9048C179.592 39.7608 179.52 39.5848 179.52 39.3768C179.52 39.1688 179.592 38.9928 179.736 38.8488C179.88 38.7048 180.056 38.6328 180.264 38.6328C180.465 38.6328 180.633 38.7048 180.769 38.8488C180.913 38.9928 180.985 39.1688 180.985 39.3768C180.985 39.5848 180.913 39.7608 180.769 39.9048C180.633 40.0488 180.465 40.1208 180.264 40.1208ZM180.793 41.1888V47.7648H179.7V41.1888H180.793Z" fill="black" fill-opacity="0.5"/>
<path d="M176.192 42.2568C176.384 41.8808 176.656 41.5888 177.008 41.3808C177.369 41.1728 177.805 41.0688 178.318 41.0688V42.1968H178.03C176.804 42.1968 176.192 42.8608 176.192 44.1888V47.7648H175.099V41.1888H176.192V42.2568Z" fill="black" fill-opacity="0.5"/>
<path d="M173.62 41.8489C173.62 42.5449 173.38 43.1249 172.899 43.5889C172.427 44.0449 171.702 44.2729 170.725 44.2729H169.115V47.7648H168.022V39.4009H170.725C171.67 39.4009 172.387 39.6289 172.875 40.0849C173.372 40.5409 173.62 41.1289 173.62 41.8489ZM170.725 43.3729C171.333 43.3729 171.782 43.2409 172.07 42.9769C172.358 42.7129 172.503 42.3369 172.503 41.8489C172.503 40.8169 171.91 40.3009 170.725 40.3009H169.115V43.3729H170.725Z" fill="black" fill-opacity="0.5"/>
<path d="M161.191 42.2568C161.383 41.8808 161.656 41.5888 162.008 41.3808C162.368 41.1728 162.805 41.0688 163.317 41.0688V42.1968H163.029C161.804 42.1968 161.191 42.8608 161.191 44.1888V47.7648H160.098V41.1888H161.191V42.2568Z" fill="black" fill-opacity="0.5"/>
<path d="M158.535 44.2248C158.535 44.4328 158.523 44.6528 158.499 44.8848H153.238C153.278 45.5328 153.498 46.0408 153.898 46.4088C154.307 46.7688 154.799 46.9488 155.376 46.9488C155.848 46.9488 156.241 46.8408 156.553 46.6248C156.873 46.4008 157.098 46.1048 157.226 45.7368H158.403C158.227 46.3688 157.874 46.8848 157.346 47.2848C156.817 47.6768 156.161 47.8728 155.376 47.8728C154.751 47.8728 154.191 47.7328 153.694 47.4528C153.206 47.1728 152.821 46.7768 152.541 46.2648C152.261 45.7448 152.12 45.1448 152.12 44.4648C152.12 43.7848 152.257 43.1888 152.529 42.6768C152.801 42.1648 153.182 41.7728 153.67 41.5008C154.167 41.2208 154.735 41.0808 155.376 41.0808C156 41.0808 156.553 41.2168 157.034 41.4888C157.514 41.7608 157.882 42.1368 158.139 42.6168C158.403 43.0888 158.535 43.6248 158.535 44.2248ZM157.406 43.9968C157.406 43.5808 157.314 43.2248 157.13 42.9288C156.945 42.6248 156.693 42.3968 156.373 42.2448C156.061 42.0848 155.712 42.0048 155.328 42.0048C154.775 42.0048 154.303 42.1808 153.91 42.5328C153.526 42.8848 153.306 43.3728 153.25 43.9968H157.406Z" fill="black" fill-opacity="0.5"/>
<path d="M151.324 41.1887L149.27 47.7647H148.141L146.555 42.5447L144.969 47.7647H143.84L141.774 41.1887H142.891L144.405 46.7087L146.038 41.1887H147.156L148.753 46.7207L150.243 41.1887H151.324Z" fill="black" fill-opacity="0.5"/>
<path d="M137.622 47.8728C137.006 47.8728 136.445 47.7328 135.94 47.4528C135.444 47.1728 135.051 46.7768 134.763 46.2648C134.483 45.7448 134.343 45.1448 134.343 44.4648C134.343 43.7928 134.487 43.2008 134.775 42.6888C135.072 42.1688 135.472 41.7728 135.976 41.5008C136.481 41.2208 137.046 41.0808 137.67 41.0808C138.295 41.0808 138.859 41.2208 139.364 41.5008C139.868 41.7728 140.265 42.1648 140.553 42.6768C140.849 43.1888 140.998 43.7848 140.998 44.4648C140.998 45.1448 140.845 45.7448 140.541 46.2648C140.245 46.7768 139.84 47.1728 139.328 47.4528C138.815 47.7328 138.247 47.8728 137.622 47.8728ZM137.622 46.9128C138.015 46.9128 138.383 46.8208 138.727 46.6368C139.072 46.4528 139.348 46.1768 139.556 45.8088C139.772 45.4408 139.88 44.9928 139.88 44.4648C139.88 43.9368 139.776 43.4888 139.568 43.1208C139.36 42.7528 139.088 42.4808 138.751 42.3048C138.415 42.1208 138.051 42.0288 137.658 42.0288C137.258 42.0288 136.889 42.1208 136.553 42.3048C136.225 42.4808 135.96 42.7528 135.76 43.1208C135.56 43.4888 135.46 43.9368 135.46 44.4648C135.46 45.0008 135.556 45.4528 135.748 45.8208C135.948 46.1888 136.213 46.4648 136.541 46.6488C136.869 46.8248 137.23 46.9128 137.622 46.9128Z" fill="black" fill-opacity="0.5"/>
<path d="M130.539 46.8768H133.47V47.7648H129.446V39.4009H130.539V46.8768Z" fill="black" fill-opacity="0.5"/>
<path d="M124.751 46.2529L123.406 49.4809H122.673L123.55 46.2529H124.751Z" fill="black" fill-opacity="0.5"/>
<path d="M119.556 47.8728C119.052 47.8728 118.599 47.7888 118.199 47.6208C117.798 47.4448 117.482 47.2048 117.25 46.9008C117.018 46.5888 116.89 46.2328 116.865 45.8328H117.995C118.027 46.1608 118.179 46.4288 118.451 46.6368C118.731 46.8448 119.096 46.9488 119.544 46.9488C119.961 46.9488 120.289 46.8568 120.529 46.6728C120.769 46.4888 120.89 46.2568 120.89 45.9768C120.89 45.6888 120.761 45.4768 120.505 45.3408C120.249 45.1968 119.853 45.0568 119.316 44.9208C118.827 44.7928 118.427 44.6648 118.115 44.5368C117.81 44.4008 117.546 44.2048 117.322 43.9488C117.106 43.6848 116.998 43.3408 116.998 42.9168C116.998 42.5808 117.098 42.2728 117.298 41.9928C117.498 41.7128 117.782 41.4928 118.151 41.3328C118.519 41.1648 118.94 41.0808 119.412 41.0808C120.141 41.0808 120.729 41.2648 121.178 41.6328C121.626 42.0008 121.867 42.5048 121.899 43.1448H120.806C120.781 42.8008 120.641 42.5248 120.385 42.3168C120.137 42.1088 119.8 42.0048 119.376 42.0048C118.984 42.0048 118.671 42.0888 118.439 42.2568C118.207 42.4248 118.091 42.6448 118.091 42.9168C118.091 43.1328 118.159 43.3128 118.295 43.4568C118.439 43.5928 118.615 43.7048 118.823 43.7928C119.04 43.8728 119.336 43.9648 119.712 44.0688C120.185 44.1968 120.569 44.3248 120.866 44.4528C121.162 44.5728 121.414 44.7568 121.622 45.0048C121.839 45.2528 121.951 45.5768 121.959 45.9768C121.959 46.3368 121.859 46.6608 121.658 46.9488C121.458 47.2368 121.174 47.4648 120.806 47.6328C120.445 47.7928 120.029 47.8728 119.556 47.8728Z" fill="black" fill-opacity="0.5"/>
<path d="M108.58 44.4527C108.58 43.7807 108.716 43.1927 108.988 42.6887C109.26 42.1767 109.633 41.7807 110.105 41.5007C110.586 41.2208 111.122 41.0808 111.715 41.0808C112.227 41.0808 112.704 41.2008 113.144 41.4408C113.585 41.6727 113.921 41.9807 114.153 42.3647V38.8848H115.258V47.7647H114.153V46.5287C113.937 46.9207 113.617 47.2447 113.192 47.5007C112.768 47.7487 112.271 47.8727 111.703 47.8727C111.118 47.8727 110.586 47.7287 110.105 47.4407C109.633 47.1527 109.26 46.7487 108.988 46.2287C108.716 45.7087 108.58 45.1167 108.58 44.4527ZM114.153 44.4647C114.153 43.9687 114.053 43.5367 113.853 43.1687C113.653 42.8007 113.381 42.5207 113.036 42.3287C112.7 42.1287 112.327 42.0287 111.919 42.0287C111.511 42.0287 111.138 42.1247 110.802 42.3167C110.466 42.5087 110.197 42.7887 109.997 43.1567C109.797 43.5247 109.697 43.9567 109.697 44.4527C109.697 44.9567 109.797 45.3967 109.997 45.7727C110.197 46.1407 110.466 46.4247 110.802 46.6247C111.138 46.8167 111.511 46.9127 111.919 46.9127C112.327 46.9127 112.7 46.8167 113.036 46.6247C113.381 46.4247 113.653 46.1407 113.853 45.7727C114.053 45.3967 114.153 44.9607 114.153 44.4647Z" fill="black" fill-opacity="0.5"/>
<path d="M104.391 41.0688C105.192 41.0688 105.841 41.3128 106.337 41.8008C106.834 42.2808 107.082 42.9768 107.082 43.8888V47.7648H106.001V44.0448C106.001 43.3888 105.837 42.8888 105.509 42.5448C105.18 42.1928 104.732 42.0168 104.163 42.0168C103.587 42.0168 103.126 42.1968 102.782 42.5568C102.446 42.9168 102.277 43.4408 102.277 44.1288V47.7648H101.184V41.1888H102.277V42.1248C102.494 41.7888 102.786 41.5288 103.154 41.3448C103.531 41.1608 103.943 41.0688 104.391 41.0688Z" fill="black" fill-opacity="0.5"/>
<path d="M92.538 44.4528C92.538 43.7808 92.6741 43.1928 92.9464 42.6888C93.2187 42.1768 93.591 41.7808 94.0635 41.5008C94.544 41.2208 95.0766 41.0808 95.6612 41.0808C96.2378 41.0808 96.7383 41.2048 97.1627 41.4528C97.5871 41.7008 97.9035 42.0128 98.1117 42.3888V41.1888H99.2168V47.7648H98.1117V46.5408C97.8955 46.9248 97.5711 47.2448 97.1387 47.5008C96.7142 47.7488 96.2177 47.8728 95.6492 47.8728C95.0646 47.8728 94.536 47.7288 94.0635 47.4408C93.591 47.1528 93.2187 46.7488 92.9464 46.2288C92.6741 45.7088 92.538 45.1168 92.538 44.4528ZM98.1117 44.4648C98.1117 43.9688 98.0116 43.5368 97.8114 43.1688C97.6112 42.8008 97.3389 42.5208 96.9945 42.3288C96.6582 42.1288 96.2858 42.0288 95.8774 42.0288C95.469 42.0288 95.0966 42.1248 94.7602 42.3168C94.4239 42.5088 94.1556 42.7888 93.9554 43.1568C93.7552 43.5248 93.6551 43.9568 93.6551 44.4528C93.6551 44.9568 93.7552 45.3968 93.9554 45.7728C94.1556 46.1408 94.4239 46.4248 94.7602 46.6248C95.0966 46.8168 95.469 46.9128 95.8774 46.9128C96.2858 46.9128 96.6582 46.8168 96.9945 46.6248C97.3389 46.4248 97.6112 46.1408 97.8114 45.7728C98.0116 45.3968 98.1117 44.9608 98.1117 44.4648Z" fill="black" fill-opacity="0.5"/>
<path d="M89.4382 42.2568C89.6304 41.8808 89.9027 41.5888 90.255 41.3808C90.6154 41.1728 91.0519 41.0688 91.5644 41.0688V42.1968H91.2761C90.0508 42.1968 89.4382 42.8608 89.4382 44.1888V47.7648H88.3451V41.1888H89.4382V42.2568Z" fill="black" fill-opacity="0.5"/>
<path d="M85.0503 43.4569C85.3546 43.5049 85.6309 43.6289 85.8792 43.8289C86.1354 44.0289 86.3357 44.2769 86.4798 44.5729C86.632 44.8688 86.708 45.1848 86.708 45.5208C86.708 45.9448 86.5999 46.3288 86.3837 46.6728C86.1675 47.0088 85.8512 47.2768 85.4347 47.4768C85.0263 47.6688 84.5418 47.7648 83.9812 47.7648H80.858V39.4009H83.8611C84.4297 39.4009 84.9142 39.4969 85.3146 39.6889C85.715 39.8729 86.0153 40.1249 86.2155 40.4449C86.4157 40.7649 86.5158 41.1249 86.5158 41.5249C86.5158 42.0209 86.3797 42.4329 86.1074 42.7609C85.8431 43.0809 85.4908 43.3129 85.0503 43.4569ZM81.9512 43.0129H83.789C84.3016 43.0129 84.698 42.8929 84.9783 42.6529C85.2585 42.4129 85.3987 42.0809 85.3987 41.6569C85.3987 41.2329 85.2585 40.9009 84.9783 40.6609C84.698 40.4209 84.2936 40.3009 83.765 40.3009H81.9512V43.0129ZM83.8851 46.8648C84.4297 46.8648 84.8541 46.7368 85.1584 46.4808C85.4628 46.2248 85.6149 45.8688 85.6149 45.4128C85.6149 44.9488 85.4547 44.5848 85.1344 44.3209C84.8141 44.0489 84.3856 43.9129 83.8491 43.9129H81.9512V46.8648H83.8851Z" fill="black" fill-opacity="0.5"/>
<path d="M72.9389 41.0688C73.7397 41.0688 74.3884 41.3128 74.8849 41.8008C75.3814 42.2808 75.6297 42.9768 75.6297 43.8888V47.7648H74.5485V44.0448C74.5485 43.3888 74.3844 42.8888 74.056 42.5448C73.7277 42.1928 73.2792 42.0168 72.7107 42.0168C72.1341 42.0168 71.6736 42.1968 71.3292 42.5568C70.9929 42.9168 70.8247 43.4408 70.8247 44.1288V47.7648H69.7316V41.1888H70.8247V42.1248C71.0409 41.7888 71.3332 41.5288 71.7016 41.3448C72.078 41.1608 72.4904 41.0688 72.9389 41.0688Z" fill="black" fill-opacity="0.5"/>
<path d="M61.0854 44.4528C61.0854 43.7808 61.2215 43.1928 61.4938 42.6888C61.7661 42.1768 62.1384 41.7808 62.6109 41.5008C63.0914 41.2208 63.624 41.0808 64.2086 41.0808C64.7852 41.0808 65.2857 41.2048 65.7101 41.4528C66.1345 41.7008 66.4509 42.0128 66.6591 42.3888V41.1888H67.7642V47.7648H66.6591V46.5408C66.4429 46.9248 66.1185 47.2448 65.6861 47.5008C65.2616 47.7488 64.7651 47.8728 64.1966 47.8728C63.612 47.8728 63.0834 47.7288 62.6109 47.4408C62.1384 47.1528 61.7661 46.7488 61.4938 46.2288C61.2215 45.7088 61.0854 45.1168 61.0854 44.4528ZM66.6591 44.4648C66.6591 43.9688 66.559 43.5368 66.3588 43.1688C66.1586 42.8008 65.8863 42.5208 65.5419 42.3288C65.2056 42.1288 64.8332 42.0288 64.4248 42.0288C64.0164 42.0288 63.644 42.1248 63.3076 42.3168C62.9713 42.5088 62.703 42.7888 62.5028 43.1568C62.3026 43.5248 62.2025 43.9568 62.2025 44.4528C62.2025 44.9568 62.3026 45.3968 62.5028 45.7728C62.703 46.1408 62.9713 46.4248 63.3076 46.6248C63.644 46.8168 64.0164 46.9128 64.4248 46.9128C64.8332 46.9128 65.2056 46.8168 65.5419 46.6248C65.8863 46.4248 66.1586 46.1408 66.3588 45.7728C66.559 45.3968 66.6591 44.9608 66.6591 44.4648Z" fill="black" fill-opacity="0.5"/>
<path d="M58.9821 40.1208C58.7739 40.1208 58.5977 40.0488 58.4535 39.9048C58.3094 39.7608 58.2373 39.5848 58.2373 39.3768C58.2373 39.1688 58.3094 38.9928 58.4535 38.8488C58.5977 38.7048 58.7739 38.6328 58.9821 38.6328C59.1823 38.6328 59.3504 38.7048 59.4866 38.8488C59.6307 38.9928 59.7028 39.1688 59.7028 39.3768C59.7028 39.5848 59.6307 39.7608 59.4866 39.9048C59.3504 40.0488 59.1823 40.1208 58.9821 40.1208ZM59.5106 41.1888V47.7648H58.4175V41.1888H59.5106Z" fill="black" fill-opacity="0.5"/>
<path d="M54.3518 47.8728C53.8473 47.8728 53.3948 47.7888 52.9944 47.6208C52.594 47.4448 52.2776 47.2048 52.0454 46.9008C51.8132 46.5888 51.685 46.2328 51.661 45.8328H52.7902C52.8222 46.1608 52.9744 46.4288 53.2466 46.6368C53.5269 46.8448 53.8913 46.9488 54.3398 46.9488C54.7562 46.9488 55.0845 46.8568 55.3248 46.6728C55.565 46.4888 55.6851 46.2568 55.6851 45.9768C55.6851 45.6888 55.557 45.4768 55.3008 45.3408C55.0445 45.1968 54.6481 45.0568 54.1115 44.9208C53.623 44.7928 53.2226 44.6648 52.9103 44.5368C52.606 44.4008 52.3417 44.2048 52.1175 43.9488C51.9013 43.6848 51.7931 43.3408 51.7931 42.9168C51.7931 42.5808 51.8933 42.2728 52.0935 41.9928C52.2937 41.7128 52.578 41.4928 52.9463 41.3328C53.3147 41.1648 53.7351 41.0808 54.2076 41.0808C54.9364 41.0808 55.525 41.2648 55.9734 41.6328C56.4219 42.0008 56.6621 42.5048 56.6942 43.1448H55.6011C55.577 42.8008 55.4369 42.5248 55.1806 42.3168C54.9324 42.1088 54.596 42.0048 54.1716 42.0048C53.7792 42.0048 53.4669 42.0888 53.2346 42.2568C53.0024 42.4248 52.8863 42.6448 52.8863 42.9168C52.8863 43.1328 52.9543 43.3128 53.0905 43.4568C53.2346 43.5928 53.4108 43.7048 53.619 43.7928C53.8352 43.8728 54.1315 43.9648 54.5079 44.0688C54.9804 44.1968 55.3648 44.3248 55.6611 44.4528C55.9574 44.5728 56.2097 44.7568 56.4179 45.0048C56.6341 45.2528 56.7462 45.5768 56.7542 45.9768C56.7542 46.3368 56.6541 46.6608 56.4539 46.9488C56.2537 47.2368 55.9694 47.4648 55.6011 47.6328C55.2407 47.7928 54.8243 47.8728 54.3518 47.8728Z" fill="black" fill-opacity="0.5"/>
<path d="M48.7561 45.9047H45.1044L44.4317 47.7647H43.2785L46.3056 39.4487H47.5669L50.582 47.7647H49.4288L48.7561 45.9047ZM48.4438 45.0167L46.9303 40.7927L45.4167 45.0167H48.4438Z" fill="black" fill-opacity="0.5"/>
<path d="M38.9214 44.2248C38.9214 44.4328 38.9094 44.6528 38.8854 44.8848H33.624C33.664 45.5328 33.8842 46.0408 34.2846 46.4088C34.6931 46.7688 35.1856 46.9488 35.7621 46.9488C36.2346 46.9488 36.627 46.8408 36.9394 46.6248C37.2597 46.4008 37.4839 46.1048 37.612 45.7368H38.7893C38.6131 46.3688 38.2607 46.8848 37.7322 47.2848C37.2036 47.6768 36.547 47.8728 35.7621 47.8728C35.1375 47.8728 34.5769 47.7328 34.0804 47.4528C33.5919 47.1728 33.2075 46.7768 32.9272 46.2648C32.6469 45.7448 32.5068 45.1448 32.5068 44.4648C32.5068 43.7848 32.6429 43.1888 32.9152 42.6768C33.1875 42.1648 33.5679 41.7728 34.0564 41.5008C34.5529 41.2208 35.1215 41.0808 35.7621 41.0808C36.3868 41.0808 36.9394 41.2168 37.4199 41.4888C37.9003 41.7608 38.2687 42.1368 38.525 42.6168C38.7893 43.0888 38.9214 43.6248 38.9214 44.2248ZM37.7922 43.9968C37.7922 43.5808 37.7001 43.2248 37.516 42.9288C37.3318 42.6248 37.0795 42.3968 36.7592 42.2448C36.4469 42.0848 36.0985 42.0048 35.7141 42.0048C35.1615 42.0048 34.689 42.1808 34.2966 42.5328C33.9123 42.8848 33.692 43.3728 33.636 43.9968H37.7922Z" fill="black" fill-opacity="0.5"/>
<path d="M29.4071 42.2568C29.5993 41.8808 29.8716 41.5888 30.2239 41.3808C30.5843 41.1728 31.0207 41.0688 31.5333 41.0688V42.1968H31.245C30.0197 42.1968 29.4071 42.8608 29.4071 44.1888V47.7648H28.314V41.1888H29.4071V42.2568Z" fill="black" fill-opacity="0.5"/>
<path d="M23.3811 47.8728C22.7644 47.8728 22.2039 47.7328 21.6994 47.4528C21.2028 47.1728 20.8104 46.7768 20.5221 46.2648C20.2419 45.7448 20.1017 45.1448 20.1017 44.4648C20.1017 43.7928 20.2459 43.2008 20.5342 42.6888C20.8305 42.1688 21.2309 41.7728 21.7354 41.5008C22.2399 41.2208 22.8045 41.0808 23.4291 41.0808C24.0538 41.0808 24.6183 41.2208 25.1229 41.5008C25.6274 41.7728 26.0238 42.1648 26.3121 42.6768C26.6084 43.1888 26.7565 43.7848 26.7565 44.4648C26.7565 45.1448 26.6044 45.7448 26.3001 46.2648C26.0038 46.7768 25.5994 47.1728 25.0868 47.4528C24.5743 47.7328 24.0057 47.8728 23.3811 47.8728ZM23.3811 46.9128C23.7735 46.9128 24.1419 46.8208 24.4862 46.6368C24.8306 46.4528 25.1068 46.1768 25.3151 45.8088C25.5313 45.4408 25.6394 44.9928 25.6394 44.4648C25.6394 43.9368 25.5353 43.4888 25.3271 43.1208C25.1189 42.7528 24.8466 42.4808 24.5102 42.3048C24.1739 42.1208 23.8095 42.0288 23.4171 42.0288C23.0167 42.0288 22.6483 42.1208 22.312 42.3048C21.9836 42.4808 21.7194 42.7528 21.5192 43.1208C21.319 43.4888 21.2189 43.9368 21.2189 44.4648C21.2189 45.0008 21.315 45.4528 21.5072 45.8208C21.7074 46.1888 21.9716 46.4648 22.3 46.6488C22.6283 46.8248 22.9887 46.9128 23.3811 46.9128Z" fill="black" fill-opacity="0.5"/>
<path d="M18.5362 39.4609V47.7649H17.4431V41.5729L14.6802 47.7649H13.9115L11.1366 41.5609V47.7649H10.0435V39.4609H11.2207L14.2959 46.3249L17.371 39.4609H18.5362Z" fill="black" fill-opacity="0.5"/>
<path d="M194.853 27.7173C193.825 27.7173 192.949 27.5567 192.224 27.2355C191.499 26.9143 190.977 26.4389 190.658 25.8093C190.352 25.1798 190.309 24.4217 190.528 23.5352H194.172C194.086 24.0363 194.16 24.4217 194.392 24.6915C194.627 24.9485 194.992 25.077 195.486 25.077C195.993 25.077 196.424 24.9678 196.778 24.7494C197.136 24.5181 197.37 24.2033 197.481 23.805C197.573 23.471 197.53 23.1947 197.35 22.9763C197.184 22.7579 196.947 22.578 196.639 22.4367C196.345 22.2954 195.909 22.1348 195.332 21.9549C194.499 21.6851 193.833 21.4153 193.334 21.1455C192.835 20.8757 192.452 20.4774 192.184 19.9506C191.917 19.4238 191.901 18.7364 192.136 17.8885C192.486 16.6294 193.233 15.6465 194.377 14.9398C195.524 14.2203 196.859 13.8606 198.38 13.8606C199.928 13.8606 201.077 14.2203 201.824 14.9398C202.576 15.6465 202.808 16.6358 202.522 17.9077H198.818C198.913 17.4709 198.84 17.1304 198.601 16.8863C198.365 16.6294 198.007 16.5009 197.527 16.5009C197.113 16.5009 196.749 16.6101 196.435 16.8285C196.124 17.0341 195.914 17.336 195.803 17.7343C195.682 18.1711 195.801 18.5116 196.16 18.7557C196.519 18.9998 197.114 19.2632 197.943 19.5459C198.768 19.8414 199.424 20.124 199.909 20.3939C200.408 20.6637 200.793 21.0555 201.065 21.5695C201.336 22.0834 201.359 22.7451 201.134 23.5545C200.92 24.3254 200.519 25.0256 199.93 25.6551C199.355 26.2847 198.628 26.7858 197.751 27.1584C196.873 27.531 195.907 27.7173 194.853 27.7173Z" fill="#1166DD" fill-opacity="0.8"/>
<path d="M175.858 20.7986C176.229 19.4624 176.859 18.2739 177.749 17.2333C178.642 16.1797 179.703 15.3639 180.931 14.7857C182.176 14.1947 183.48 13.8992 184.841 13.8992C186.51 13.8992 187.82 14.3232 188.772 15.1711C189.725 16.0191 190.198 17.1754 190.192 18.6401H186.428C186.304 18.0748 186.023 17.6444 185.585 17.3489C185.16 17.0534 184.62 16.9056 183.966 16.9056C182.912 16.9056 181.96 17.2589 181.109 17.9656C180.259 18.6722 179.67 19.6166 179.342 20.7986C179.013 21.9806 179.078 22.925 179.536 23.6316C179.994 24.3382 180.75 24.6916 181.804 24.6916C182.458 24.6916 183.08 24.5438 183.669 24.2483C184.272 23.9528 184.792 23.5224 185.229 22.9571H188.993C188.186 24.4218 187.07 25.5781 185.647 26.4261C184.227 27.2612 182.683 27.6787 181.015 27.6787C179.653 27.6787 178.512 27.3897 177.592 26.8115C176.688 26.2205 176.081 25.4046 175.769 24.3639C175.457 23.3232 175.487 22.1348 175.858 20.7986Z" fill="#1166DD" fill-opacity="0.8"/>
<path d="M175.831 14.0532L172.074 27.5823H168.65L172.407 14.0532H175.831Z" fill="#1166DD" fill-opacity="0.8"/>
<path d="M166.169 27.5823H162.745L159.337 19.2374L157.019 27.5823H153.596L157.353 14.0532H160.776L164.174 22.4366L166.502 14.0532H169.926L166.169 27.5823Z" fill="#1166DD" fill-opacity="0.8"/>
<path d="M144.466 27.7173C143.145 27.7173 142.012 27.4218 141.069 26.8307C140.138 26.2397 139.493 25.4175 139.131 24.3639C138.787 23.2975 138.798 22.1026 139.165 20.7793C139.533 19.4559 140.183 18.2675 141.117 17.2139C142.063 16.1604 143.166 15.3381 144.424 14.7471C145.696 14.1561 146.993 13.8606 148.314 13.8606C149.636 13.8606 150.761 14.1561 151.692 14.7471C152.635 15.3381 153.275 16.1604 153.609 17.2139C153.957 18.2675 153.948 19.4559 153.58 20.7793C153.213 22.1026 152.561 23.2975 151.624 24.3639C150.691 25.4175 149.595 26.2397 148.336 26.8307C147.078 27.4218 145.788 27.7173 144.466 27.7173ZM145.301 24.7108C146.422 24.7108 147.416 24.3511 148.284 23.6316C149.164 22.9121 149.768 21.9613 150.097 20.7793C150.429 19.5844 150.352 18.6337 149.868 17.927C149.4 17.2075 148.606 16.8478 147.485 16.8478C146.35 16.8478 145.344 17.2011 144.468 17.9077C143.604 18.6144 143.004 19.5716 142.669 20.7793C142.337 21.9742 142.405 22.9313 142.873 23.6508C143.357 24.3575 144.167 24.7108 145.301 24.7108Z" fill="#1166DD" fill-opacity="0.8"/>
<path d="M131.964 27.5823L130.459 22.4751H129.638L128.22 27.5823H124.797L128.554 14.0532H134.299C135.407 14.0532 136.296 14.2395 136.967 14.6121C137.651 14.9847 138.096 15.4986 138.301 16.1539C138.51 16.7963 138.503 17.5158 138.282 18.3124C138.032 19.2117 137.542 20.0147 136.812 20.7214C136.095 21.428 135.182 21.9291 134.072 22.2246L135.828 27.5823H131.964ZM130.286 20.1432H132.408C133.035 20.1432 133.544 19.9955 133.933 19.7C134.335 19.4045 134.611 18.9869 134.761 18.4473C134.904 17.9333 134.856 17.5286 134.618 17.2331C134.393 16.9376 133.967 16.7899 133.339 16.7899H131.217L130.286 20.1432Z" fill="#1166DD" fill-opacity="0.8"/>
<path d="M126.835 14.0532L126.102 16.6935H122.378L119.355 27.5823H115.931L118.955 16.6935H115.231L115.964 14.0532H126.835Z" fill="#1166DD" fill-opacity="0.8"/>
<path d="M99.0212 20.7986C99.3923 19.4624 100.023 18.2739 100.912 17.2333C101.805 16.1797 102.866 15.3639 104.094 14.7857C105.34 14.1947 106.643 13.8992 108.004 13.8992C109.673 13.8992 110.983 14.3232 111.936 15.1711C112.888 16.0191 113.361 17.1754 113.355 18.6401H109.591C109.468 18.0748 109.187 17.6444 108.748 17.3489C108.323 17.0534 107.784 16.9056 107.129 16.9056C106.075 16.9056 105.123 17.2589 104.273 17.9656C103.422 18.6722 102.833 19.6166 102.505 20.7986C102.177 21.9806 102.241 22.925 102.699 23.6316C103.157 24.3382 103.913 24.6916 104.967 24.6916C105.621 24.6916 106.243 24.5438 106.832 24.2483C107.435 23.9528 107.955 23.5224 108.392 22.9571H112.156C111.349 24.4218 110.234 25.5781 108.81 26.4261C107.39 27.2612 105.846 27.6788 104.178 27.6788C102.817 27.6788 101.676 27.3897 100.755 26.8115C99.8514 26.2205 99.2437 25.4046 98.9321 24.3639C98.6205 23.3232 98.6502 22.1348 99.0212 20.7986Z" fill="#1166DD" fill-opacity="0.8"/>
<path d="M93.3338 16.6935L92.5739 19.4302H97.1586L96.4522 21.9741H91.8675L91.0433 24.942H96.2286L95.4954 27.5823H86.8866L90.6435 14.0532H99.2523L98.5191 16.6935H93.3338Z" fill="#1166DD" fill-opacity="0.8"/>
<path d="M81.4755 25.0383H85.9601L85.2537 27.5823H77.3456L81.1024 14.0532H84.5259L81.4755 25.0383Z" fill="#1166DD" fill-opacity="0.8"/>
<path d="M72.9613 16.6935L72.2014 19.4302H76.7861L76.0797 21.9741H71.4949L70.6708 24.942H75.8561L75.1229 27.5823H66.5141L70.271 14.0532H78.8798L78.1466 16.6935H72.9613Z" fill="#1166DD" fill-opacity="0.8"/>
<path d="M48.3246 20.7986C48.6956 19.4624 49.326 18.2739 50.2156 17.2333C51.1087 16.1797 52.1695 15.3639 53.3978 14.7857C54.643 14.1947 55.9463 13.8992 57.3077 13.8992C58.9761 13.8992 60.2865 14.3232 61.2389 15.1711C62.1914 16.0191 62.6644 17.1754 62.6581 18.6401H58.8942C58.7709 18.0748 58.49 17.6444 58.0515 17.3489C57.6264 17.0534 57.0868 16.9056 56.4328 16.9056C55.3784 16.9056 54.4261 17.2589 53.5759 17.9656C52.7256 18.6722 52.1364 19.6166 51.8082 20.7986C51.4799 21.9806 51.5447 22.925 52.0025 23.6316C52.4603 24.3382 53.2164 24.6916 54.2708 24.6916C54.9248 24.6916 55.5464 24.5438 56.1356 24.2483C56.7382 23.9528 57.2582 23.5224 57.6954 22.9571H61.4593C60.6522 24.4218 59.5369 25.5781 58.1136 26.4261C56.6938 27.2612 55.1497 27.6787 53.4813 27.6787C52.1199 27.6787 50.9789 27.3897 50.0584 26.8115C49.1547 26.2205 48.5471 25.4046 48.2355 24.3639C47.9238 23.3232 47.9535 22.1348 48.3246 20.7986Z" fill="#1166DD" fill-opacity="0.8"/>
<path d="M39.7518 27.7173C38.7241 27.7173 37.8477 27.5567 37.1228 27.2355C36.3978 26.9143 35.8758 26.4389 35.5568 25.8093C35.2511 25.1798 35.208 24.4217 35.4275 23.5352H39.0712C38.9855 24.0363 39.0586 24.4217 39.2907 24.6915C39.5263 24.9485 39.891 25.077 40.3849 25.077C40.8921 25.077 41.3228 24.9678 41.6771 24.7494C42.0349 24.5181 42.2692 24.2033 42.3798 23.805C42.4725 23.471 42.4291 23.1947 42.2495 22.9763C42.0833 22.7579 41.8463 22.578 41.5385 22.4367C41.2441 22.2954 40.8082 22.1348 40.2308 21.9549C39.3981 21.6851 38.7323 21.4153 38.2333 21.1455C37.7343 20.8757 37.351 20.4774 37.0836 19.9506C36.8161 19.4238 36.8001 18.7364 37.0356 17.8885C37.3852 16.6294 38.132 15.6465 39.2758 14.9398C40.4233 14.2203 41.7578 13.8606 43.2793 13.8606C44.8276 13.8606 45.9756 14.2203 46.7235 14.9398C47.4749 15.6465 47.7074 16.6358 47.4209 17.9077H43.7171C43.8117 17.4709 43.7394 17.1304 43.5002 16.8863C43.2646 16.6294 42.9065 16.5009 42.426 16.5009C42.0123 16.5009 41.6483 16.6101 41.334 16.8285C41.0233 17.0341 40.8127 17.336 40.7021 17.7343C40.5808 18.1711 40.6998 18.5116 41.0591 18.7557C41.4184 18.9998 42.0126 19.2632 42.8418 19.5459C43.6673 19.8414 44.3229 20.124 44.8085 20.3939C45.3075 20.6637 45.6926 21.0555 45.9636 21.5695C46.2347 22.0834 46.2578 22.7451 46.033 23.5545C45.819 24.3254 45.4176 25.0256 44.8291 25.6551C44.2538 26.2847 43.5274 26.7858 42.6498 27.1584C41.7722 27.531 40.8062 27.7173 39.7518 27.7173Z" fill="#1166DD" fill-opacity="0.8"/>
<path d="M20.7572 20.7986C21.1282 19.4624 21.7586 18.2739 22.6482 17.2333C23.5414 16.1797 24.6021 15.3639 25.8304 14.7857C27.0756 14.1947 28.379 13.8992 29.7404 13.8992C31.4087 13.8992 32.7191 14.3232 33.6716 15.1711C34.624 16.0191 35.097 17.1754 35.0907 18.6401H31.3268C31.2035 18.0748 30.9226 17.6444 30.4842 17.3489C30.059 17.0534 29.5195 16.9056 28.8655 16.9056C27.811 16.9056 26.8587 17.2589 26.0085 17.9656C25.1582 18.6722 24.569 19.6166 24.2408 20.7986C23.9125 21.9806 23.9773 22.925 24.4351 23.6316C24.8929 24.3382 25.649 24.6916 26.7034 24.6916C27.3574 24.6916 27.979 24.5438 28.5683 24.2483C29.1709 23.9528 29.6908 23.5224 30.1281 22.9571H33.8919C33.0848 24.4218 31.9695 25.5781 30.5462 26.4261C29.1264 27.2612 27.5823 27.6788 25.9139 27.6788C24.5525 27.6788 23.4115 27.3897 22.491 26.8115C21.5873 26.2205 20.9797 25.4046 20.6681 24.3639C20.3564 23.3232 20.3862 22.1348 20.7572 20.7986Z" fill="#1166DD" fill-opacity="0.8"/>
<path d="M14.0429 25.0383H18.5275L17.8211 27.5823H9.91293L13.6698 14.0532H17.0933L14.0429 25.0383Z" fill="#1166DD" fill-opacity="0.8"/>
</svg>
